<svg xmlns="http://www.w3.org/2000/svg" viewBox="0 0 128 128"><defs><linearGradient id="j" x1="15" y1="5" x2="114" y2="128"><stop stop-color="#ACF5DB"/><stop offset=".46" stop-color="#45E0B5"/><stop offset="1" stop-color="#20B994"/></linearGradient></defs><rect x="3" y="3" width="122" height="122" rx="34" fill="url(#j)"/><path d="M88.5 47.5C82 38.5 72.5 34 62 34 43.2 34 28 49.2 28 68s15.2 34 34 34 34-15.2 34-34v-4H58v9h28.5C84.2 84.6 74.1 93 62 93 48.2 93 37 81.8 37 68s11.2-25 25-25c7.9 0 14.8 3.7 19.5 9.5z" fill="#122421"/><circle cx="98.5" cy="35" r="9" fill="none" stroke="#122421" stroke-width="3.2"/></svg>
